<mxfile host="app.diagrams.net" agent="Mozilla/5.0 (X11; Linux x86_64; rv:133.0) Gecko/20100101 Firefox/133.0" version="26.0.2">
  <diagram name="Page-1" id="ZQDgfB1TyhTRCv1D57xj">
    <mxGraphModel dx="1195" dy="658" grid="1" gridSize="10" guides="1" tooltips="1" connect="1" arrows="1" fold="1" page="1" pageScale="1" pageWidth="850" pageHeight="1100" math="0" shadow="0">
      <root>
        <mxCell id="0" />
        <mxCell id="1" parent="0" />
        <mxCell id="TkKQEVcqsaSZFCUBuHNx-30" value="" style="whiteSpace=wrap;html=1;" vertex="1" parent="1">
          <mxGeometry x="140" y="470" width="390" height="300" as="geometry" />
        </mxCell>
        <mxCell id="-fDa846xihb2PlGXXR4b-42" value="" style="whiteSpace=wrap;html=1;" parent="1" vertex="1">
          <mxGeometry x="140" y="130" width="390" height="300" as="geometry" />
        </mxCell>
        <mxCell id="-fDa846xihb2PlGXXR4b-50" style="edgeStyle=orthogonalEdgeStyle;rounded=0;orthogonalLoop=1;jettySize=auto;html=1;" parent="1" source="-fDa846xihb2PlGXXR4b-1" target="-fDa846xihb2PlGXXR4b-51" edge="1">
          <mxGeometry relative="1" as="geometry">
            <mxPoint x="720" y="160" as="targetPoint" />
          </mxGeometry>
        </mxCell>
        <mxCell id="-fDa846xihb2PlGXXR4b-1" value="&lt;br&gt;OneService API" style="strokeWidth=2;html=1;shape=mxgraph.flowchart.database;whiteSpace=wrap;" parent="1" vertex="1">
          <mxGeometry x="570" y="120" width="80" height="80" as="geometry" />
        </mxCell>
        <mxCell id="-fDa846xihb2PlGXXR4b-33" style="edgeStyle=orthogonalEdgeStyle;rounded=0;orthogonalLoop=1;jettySize=auto;html=1;" parent="1" edge="1">
          <mxGeometry relative="1" as="geometry">
            <mxPoint x="60" y="269.9999999999999" as="sourcePoint" />
            <mxPoint x="160" y="270.0000000000001" as="targetPoint" />
          </mxGeometry>
        </mxCell>
        <mxCell id="-fDa846xihb2PlGXXR4b-34" value="&lt;div&gt;Audio&lt;br&gt;Input&lt;/div&gt;" style="edgeLabel;html=1;align=center;verticalAlign=middle;resizable=0;points=[];" parent="-fDa846xihb2PlGXXR4b-33" vertex="1" connectable="0">
          <mxGeometry x="-0.115" y="-1" relative="1" as="geometry">
            <mxPoint as="offset" />
          </mxGeometry>
        </mxCell>
        <mxCell id="-fDa846xihb2PlGXXR4b-3" value="" style="shape=actor;whiteSpace=wrap;html=1;" parent="1" vertex="1">
          <mxGeometry x="20" y="230" width="40" height="60" as="geometry" />
        </mxCell>
        <mxCell id="-fDa846xihb2PlGXXR4b-9" value="OpenAI Realtime API" style="text;html=1;align=center;verticalAlign=middle;resizable=0;points=[];autosize=1;strokeColor=none;fillColor=none;" parent="1" vertex="1">
          <mxGeometry x="270" y="430" width="140" height="30" as="geometry" />
        </mxCell>
        <mxCell id="-fDa846xihb2PlGXXR4b-17" value="" style="edgeStyle=orthogonalEdgeStyle;rounded=0;orthogonalLoop=1;jettySize=auto;html=1;exitX=1;exitY=0.5;exitDx=0;exitDy=0;" parent="1" source="-fDa846xihb2PlGXXR4b-55" target="-fDa846xihb2PlGXXR4b-16" edge="1">
          <mxGeometry relative="1" as="geometry">
            <mxPoint x="410" y="370" as="sourcePoint" />
          </mxGeometry>
        </mxCell>
        <mxCell id="-fDa846xihb2PlGXXR4b-47" style="edgeStyle=orthogonalEdgeStyle;rounded=0;orthogonalLoop=1;jettySize=auto;html=1;entryX=0.005;entryY=0.435;entryDx=0;entryDy=0;entryPerimeter=0;" parent="1" source="-fDa846xihb2PlGXXR4b-16" target="-fDa846xihb2PlGXXR4b-58" edge="1">
          <mxGeometry relative="1" as="geometry">
            <mxPoint x="700" y="370" as="targetPoint" />
          </mxGeometry>
        </mxCell>
        <mxCell id="-fDa846xihb2PlGXXR4b-16" value="Audio Transcript" style="ellipse;whiteSpace=wrap;html=1;rounded=0;" parent="1" vertex="1">
          <mxGeometry x="570" y="330" width="80" height="80" as="geometry" />
        </mxCell>
        <mxCell id="-fDa846xihb2PlGXXR4b-38" style="edgeStyle=orthogonalEdgeStyle;rounded=0;orthogonalLoop=1;jettySize=auto;html=1;exitX=1;exitY=0.5;exitDx=0;exitDy=0;" parent="1" source="-fDa846xihb2PlGXXR4b-54" target="-fDa846xihb2PlGXXR4b-27" edge="1">
          <mxGeometry relative="1" as="geometry">
            <mxPoint x="410" y="270" as="sourcePoint" />
          </mxGeometry>
        </mxCell>
        <mxCell id="-fDa846xihb2PlGXXR4b-60" style="edgeStyle=orthogonalEdgeStyle;rounded=0;orthogonalLoop=1;jettySize=auto;html=1;" parent="1" source="-fDa846xihb2PlGXXR4b-27" target="-fDa846xihb2PlGXXR4b-43" edge="1">
          <mxGeometry relative="1" as="geometry" />
        </mxCell>
        <mxCell id="-fDa846xihb2PlGXXR4b-27" value="Audio&lt;br&gt;Output" style="ellipse;whiteSpace=wrap;html=1;rounded=0;" parent="1" vertex="1">
          <mxGeometry x="570" y="230" width="80" height="80" as="geometry" />
        </mxCell>
        <mxCell id="-fDa846xihb2PlGXXR4b-40" style="edgeStyle=orthogonalEdgeStyle;rounded=0;orthogonalLoop=1;jettySize=auto;html=1;entryX=0;entryY=0.5;entryDx=0;entryDy=0;exitX=1;exitY=0.5;exitDx=0;exitDy=0;" parent="1" source="-fDa846xihb2PlGXXR4b-53" edge="1">
          <mxGeometry relative="1" as="geometry">
            <mxPoint x="260" y="269.9999999999999" as="sourcePoint" />
            <mxPoint x="300" y="270" as="targetPoint" />
          </mxGeometry>
        </mxCell>
        <mxCell id="-fDa846xihb2PlGXXR4b-41" style="edgeStyle=orthogonalEdgeStyle;rounded=0;orthogonalLoop=1;jettySize=auto;html=1;entryX=0;entryY=0.5;entryDx=0;entryDy=0;exitX=1;exitY=0.5;exitDx=0;exitDy=0;" parent="1" source="-fDa846xihb2PlGXXR4b-53" target="-fDa846xihb2PlGXXR4b-55" edge="1">
          <mxGeometry relative="1" as="geometry">
            <mxPoint x="260" y="270.0000000000001" as="sourcePoint" />
            <mxPoint x="300" y="370" as="targetPoint" />
          </mxGeometry>
        </mxCell>
        <mxCell id="-fDa846xihb2PlGXXR4b-37" style="edgeStyle=orthogonalEdgeStyle;rounded=0;orthogonalLoop=1;jettySize=auto;html=1;entryX=0;entryY=0.5;entryDx=0;entryDy=0;entryPerimeter=0;exitX=1;exitY=0.5;exitDx=0;exitDy=0;" parent="1" source="-fDa846xihb2PlGXXR4b-54" target="-fDa846xihb2PlGXXR4b-1" edge="1">
          <mxGeometry relative="1" as="geometry">
            <mxPoint x="410" y="270.0114942528736" as="sourcePoint" />
            <Array as="points">
              <mxPoint x="430" y="270" />
              <mxPoint x="430" y="160" />
            </Array>
          </mxGeometry>
        </mxCell>
        <mxCell id="-fDa846xihb2PlGXXR4b-39" value="Function&lt;br&gt;Calling" style="edgeLabel;html=1;align=center;verticalAlign=middle;resizable=0;points=[];" parent="-fDa846xihb2PlGXXR4b-37" vertex="1" connectable="0">
          <mxGeometry x="0.5038" y="-3" relative="1" as="geometry">
            <mxPoint x="-26" y="-3" as="offset" />
          </mxGeometry>
        </mxCell>
        <mxCell id="-fDa846xihb2PlGXXR4b-43" value="&lt;br&gt;&lt;br&gt;User" style="shape=actor;whiteSpace=wrap;html=1;" parent="1" vertex="1">
          <mxGeometry x="730" y="240" width="40" height="60" as="geometry" />
        </mxCell>
        <mxCell id="-fDa846xihb2PlGXXR4b-51" value="Submitted&lt;br&gt;Cases" style="ellipse;shape=cloud;whiteSpace=wrap;html=1;" parent="1" vertex="1">
          <mxGeometry x="690" y="120" width="120" height="80" as="geometry" />
        </mxCell>
        <mxCell id="-fDa846xihb2PlGXXR4b-56" style="edgeStyle=orthogonalEdgeStyle;rounded=0;orthogonalLoop=1;jettySize=auto;html=1;entryX=0;entryY=0.5;entryDx=0;entryDy=0;" parent="1" source="-fDa846xihb2PlGXXR4b-53" target="-fDa846xihb2PlGXXR4b-54" edge="1">
          <mxGeometry relative="1" as="geometry" />
        </mxCell>
        <mxCell id="-fDa846xihb2PlGXXR4b-53" value="Voice Auto&lt;br&gt;Detection&lt;br&gt;(VAD)" style="shape=hexagon;perimeter=hexagonPerimeter2;whiteSpace=wrap;html=1;fixedSize=1;" parent="1" vertex="1">
          <mxGeometry x="160" y="235" width="100" height="70" as="geometry" />
        </mxCell>
        <mxCell id="-fDa846xihb2PlGXXR4b-54" value="GPT-4o" style="shape=hexagon;perimeter=hexagonPerimeter2;whiteSpace=wrap;html=1;fixedSize=1;" parent="1" vertex="1">
          <mxGeometry x="300" y="235" width="100" height="70" as="geometry" />
        </mxCell>
        <mxCell id="-fDa846xihb2PlGXXR4b-55" value="whisper-large-v2" style="shape=hexagon;perimeter=hexagonPerimeter2;whiteSpace=wrap;html=1;fixedSize=1;" parent="1" vertex="1">
          <mxGeometry x="300" y="335" width="100" height="70" as="geometry" />
        </mxCell>
        <mxCell id="-fDa846xihb2PlGXXR4b-58" value="" style="image;html=1;image=img/lib/clip_art/computers/Server_Rack_128x128.png" parent="1" vertex="1">
          <mxGeometry x="710" y="335" width="80" height="80" as="geometry" />
        </mxCell>
        <mxCell id="TkKQEVcqsaSZFCUBuHNx-2" style="edgeStyle=orthogonalEdgeStyle;rounded=0;orthogonalLoop=1;jettySize=auto;html=1;" edge="1" parent="1" source="TkKQEVcqsaSZFCUBuHNx-3" target="TkKQEVcqsaSZFCUBuHNx-19">
          <mxGeometry relative="1" as="geometry">
            <mxPoint x="730" y="550" as="targetPoint" />
          </mxGeometry>
        </mxCell>
        <mxCell id="TkKQEVcqsaSZFCUBuHNx-3" value="&lt;br&gt;OneService API" style="strokeWidth=2;html=1;shape=mxgraph.flowchart.database;whiteSpace=wrap;" vertex="1" parent="1">
          <mxGeometry x="570" y="510" width="80" height="80" as="geometry" />
        </mxCell>
        <mxCell id="TkKQEVcqsaSZFCUBuHNx-4" style="edgeStyle=orthogonalEdgeStyle;rounded=0;orthogonalLoop=1;jettySize=auto;html=1;entryX=0;entryY=0.5;entryDx=0;entryDy=0;" edge="1" parent="1" target="TkKQEVcqsaSZFCUBuHNx-23">
          <mxGeometry relative="1" as="geometry">
            <mxPoint x="70" y="659.9999999999999" as="sourcePoint" />
            <mxPoint x="170" y="660.0000000000001" as="targetPoint" />
          </mxGeometry>
        </mxCell>
        <mxCell id="TkKQEVcqsaSZFCUBuHNx-5" value="&lt;div&gt;Audio&lt;br&gt;Input&lt;/div&gt;" style="edgeLabel;html=1;align=center;verticalAlign=middle;resizable=0;points=[];" vertex="1" connectable="0" parent="TkKQEVcqsaSZFCUBuHNx-4">
          <mxGeometry x="-0.115" y="-1" relative="1" as="geometry">
            <mxPoint as="offset" />
          </mxGeometry>
        </mxCell>
        <mxCell id="TkKQEVcqsaSZFCUBuHNx-6" value="" style="shape=actor;whiteSpace=wrap;html=1;" vertex="1" parent="1">
          <mxGeometry x="30" y="620" width="40" height="60" as="geometry" />
        </mxCell>
        <mxCell id="TkKQEVcqsaSZFCUBuHNx-11" style="edgeStyle=orthogonalEdgeStyle;rounded=0;orthogonalLoop=1;jettySize=auto;html=1;exitX=1;exitY=0.5;exitDx=0;exitDy=0;" edge="1" parent="1" source="TkKQEVcqsaSZFCUBuHNx-28" target="TkKQEVcqsaSZFCUBuHNx-13">
          <mxGeometry relative="1" as="geometry">
            <mxPoint x="525" y="660" as="sourcePoint" />
          </mxGeometry>
        </mxCell>
        <mxCell id="TkKQEVcqsaSZFCUBuHNx-12" style="edgeStyle=orthogonalEdgeStyle;rounded=0;orthogonalLoop=1;jettySize=auto;html=1;" edge="1" parent="1" source="TkKQEVcqsaSZFCUBuHNx-13" target="TkKQEVcqsaSZFCUBuHNx-18">
          <mxGeometry relative="1" as="geometry" />
        </mxCell>
        <mxCell id="TkKQEVcqsaSZFCUBuHNx-13" value="Audio&lt;br&gt;Output" style="ellipse;whiteSpace=wrap;html=1;rounded=0;" vertex="1" parent="1">
          <mxGeometry x="570" y="620" width="80" height="80" as="geometry" />
        </mxCell>
        <mxCell id="TkKQEVcqsaSZFCUBuHNx-14" style="edgeStyle=orthogonalEdgeStyle;rounded=0;orthogonalLoop=1;jettySize=auto;html=1;entryX=0;entryY=0.5;entryDx=0;entryDy=0;exitX=1;exitY=0.5;exitDx=0;exitDy=0;" edge="1" parent="1">
          <mxGeometry relative="1" as="geometry">
            <mxPoint x="270" y="660" as="sourcePoint" />
            <mxPoint x="310" y="660" as="targetPoint" />
          </mxGeometry>
        </mxCell>
        <mxCell id="TkKQEVcqsaSZFCUBuHNx-16" style="edgeStyle=orthogonalEdgeStyle;rounded=0;orthogonalLoop=1;jettySize=auto;html=1;entryX=0;entryY=0.5;entryDx=0;entryDy=0;entryPerimeter=0;exitX=0.5;exitY=0;exitDx=0;exitDy=0;" edge="1" parent="1" source="TkKQEVcqsaSZFCUBuHNx-22" target="TkKQEVcqsaSZFCUBuHNx-3">
          <mxGeometry relative="1" as="geometry">
            <mxPoint x="420" y="660.0114942528736" as="sourcePoint" />
            <Array as="points" />
          </mxGeometry>
        </mxCell>
        <mxCell id="TkKQEVcqsaSZFCUBuHNx-17" value="Function&lt;br&gt;Calling" style="edgeLabel;html=1;align=center;verticalAlign=middle;resizable=0;points=[];" vertex="1" connectable="0" parent="TkKQEVcqsaSZFCUBuHNx-16">
          <mxGeometry x="0.5038" y="-3" relative="1" as="geometry">
            <mxPoint x="-26" y="-3" as="offset" />
          </mxGeometry>
        </mxCell>
        <mxCell id="TkKQEVcqsaSZFCUBuHNx-18" value="&lt;br&gt;&lt;br&gt;User" style="shape=actor;whiteSpace=wrap;html=1;" vertex="1" parent="1">
          <mxGeometry x="730" y="630" width="40" height="60" as="geometry" />
        </mxCell>
        <mxCell id="TkKQEVcqsaSZFCUBuHNx-19" value="Submitted&lt;br&gt;Cases" style="ellipse;shape=cloud;whiteSpace=wrap;html=1;" vertex="1" parent="1">
          <mxGeometry x="690" y="510" width="120" height="80" as="geometry" />
        </mxCell>
        <mxCell id="TkKQEVcqsaSZFCUBuHNx-20" style="edgeStyle=orthogonalEdgeStyle;rounded=0;orthogonalLoop=1;jettySize=auto;html=1;entryX=0;entryY=0.5;entryDx=0;entryDy=0;exitX=1;exitY=0.5;exitDx=0;exitDy=0;" edge="1" parent="1" source="TkKQEVcqsaSZFCUBuHNx-23" target="TkKQEVcqsaSZFCUBuHNx-22">
          <mxGeometry relative="1" as="geometry">
            <mxPoint x="270" y="660" as="sourcePoint" />
          </mxGeometry>
        </mxCell>
        <mxCell id="TkKQEVcqsaSZFCUBuHNx-22" value="LLM" style="shape=hexagon;perimeter=hexagonPerimeter2;whiteSpace=wrap;html=1;fixedSize=1;" vertex="1" parent="1">
          <mxGeometry x="290" y="625" width="100" height="70" as="geometry" />
        </mxCell>
        <mxCell id="TkKQEVcqsaSZFCUBuHNx-23" value="whisper-large-v2" style="shape=hexagon;perimeter=hexagonPerimeter2;whiteSpace=wrap;html=1;fixedSize=1;" vertex="1" parent="1">
          <mxGeometry x="170" y="625" width="100" height="70" as="geometry" />
        </mxCell>
        <mxCell id="TkKQEVcqsaSZFCUBuHNx-26" value="" style="edgeStyle=orthogonalEdgeStyle;rounded=0;orthogonalLoop=1;jettySize=auto;html=1;exitX=1;exitY=0.5;exitDx=0;exitDy=0;entryX=0;entryY=0.5;entryDx=0;entryDy=0;" edge="1" parent="1" source="TkKQEVcqsaSZFCUBuHNx-22" target="TkKQEVcqsaSZFCUBuHNx-28">
          <mxGeometry relative="1" as="geometry">
            <mxPoint x="410" y="660" as="sourcePoint" />
            <mxPoint x="425.01632653061233" y="660.0285714285715" as="targetPoint" />
          </mxGeometry>
        </mxCell>
        <mxCell id="TkKQEVcqsaSZFCUBuHNx-28" value="TTS Model" style="shape=hexagon;perimeter=hexagonPerimeter2;whiteSpace=wrap;html=1;fixedSize=1;" vertex="1" parent="1">
          <mxGeometry x="410" y="625" width="100" height="70" as="geometry" />
        </mxCell>
        <mxCell id="TkKQEVcqsaSZFCUBuHNx-31" value="Traditional S2S Pipeline" style="text;html=1;align=center;verticalAlign=middle;resizable=0;points=[];autosize=1;strokeColor=none;fillColor=none;" vertex="1" parent="1">
          <mxGeometry x="255" y="770" width="150" height="30" as="geometry" />
        </mxCell>
      </root>
    </mxGraphModel>
  </diagram>
</mxfile>
